# xmcd CD database file
#
# Track frame offsets:
#	150
#	12058
#	24439
#	35372
#	48819
#	62222
#	73541
#	86686
#	100840
#	110315
#	123479
#	135304
#	145528
#	156088
#	174298
#	191444
#	204798
#	216191
#	227746
#	237436
#	248341
#	258292
#	267637
#	276093
#	289793
#	302131
#	314575
#
# Disc length: 4305 seconds
#
# Revision: 0
# Processed by: cddbd v1.5.1PL2 Copyright (c) Steve Scherf et al.
# Submitted via: CDex 1.51
#
DISCID=6f10cf1b
DTITLE=Dean Mitchell - Waitin' for a Train [CD3 of 4)
DYEAR=1999
DGENRE=Country
TTITLE0=99 Year Blues
TTITLE1=Why Should I Be Lonely
TTITLE2=Treasures Untold
TTITLE3=Mystery of Number 5
TTITLE4=Take Me Back Again
TTITLE5=My Rough and Rowdy Ways
TTITLE6=Rock All Our Babies To Sleep
TTITLE7=Prairie Lullaby
TTITLE8=Pistol Packin' Papa
TTITLE9=One Rose In My Heart
TTITLE10=Old Pal of My Heart
TTITLE11=Never No Mo' Blues
TTITLE12=My Old Pal
TTITLE13=Mississippi Moon
TTITLE14=Mississippi Delta Blues
TTITLE15=Lullaby Yodel
TTITLE16=I'm Lonely and Blue
TTITLE17=My Little Old Home Down In New Orleans
TTITLE18=Home Call
TTITLE19=Hobo Bill's Last Ride
TTITLE20=I'm Free
TTITLE21=Years Ago
TTITLE22=Everybody Does It In Hawaii
TTITLE23=A Drunkard's Child
TTITLE24=Blue Yodel #9 (Standing On the Corner)
TTITLE25=My Blue-Eyed Jane
TTITLE26=Yodeling My Way Back Home
EXTD=YEAR: 1999
EXTT0=
EXTT1=
EXTT2=
EXTT3=
EXTT4=
EXTT5=
EXTT6=
EXTT7=
EXTT8=
EXTT9=
EXTT10=
EXTT11=
EXTT12=
EXTT13=
EXTT14=
EXTT15=
EXTT16=
EXTT17=
EXTT18=
EXTT19=
EXTT20=
EXTT21=
EXTT22=
EXTT23=
EXTT24=
EXTT25=
EXTT26=
PLAYORDER=
